# xmcd CD database file
#
# Track frame offsets:
#	150
#	14703
#	28218
#	42383
#	57201
#	72077
#	87913
#	102491
#	117078
#	130397
#	145153
#	159655
#	174446
#	190140
#	203318
#	218094
#	232304
#
# Disc length: 3289 seconds
#
# Revision: 0
# Processed by: cddbd v1.5.2PL0 Copyright (c) Steve Scherf et al.
# Submitted via: CDex 1.51
#
DISCID=f50cd711
DTITLE=Tommy Dorsey - The Discovery of Jazz CD2
DYEAR=2004
DGENRE=Jazz
TTITLE0=Who'll Buy My Violets
TTITLE1=Tromonology
TTITLE2=Boogie Woogie
TTITLE3=Comin' Through The Rye
TTITLE4=Marie
TTITLE5=Yes, Indeed!
TTITLE6=Pussy Willow
TTITLE7=Tom Foolery
TTITLE8=The Hucklebuck
TTITLE9=Mr Ghost Goes To Town
TTITLE10=Hollywood Hat
TTITLE11=Puddle Wump
TTITLE12=The Song Is For You
TTITLE13=Melody In F
TTITLE14=Come Rain or Come Shine
TTITLE15=Then I'll Be Happy
TTITLE16=Drumology
EXTD=YEAR: 2004
EXTT0=
EXTT1=
EXTT2=
EXTT3=
EXTT4=
EXTT5=
EXTT6=
EXTT7=
EXTT8=
EXTT9=
EXTT10=
EXTT11=
EXTT12=
EXTT13=
EXTT14=
EXTT15=
EXTT16=
PLAYORDER=
